<?xml version="1.0" encoding="UTF-8"?>
<!DOCTYPE svg PUBLIC "-//W3C//DTD SVG 1.1//EN" "http://www.w3.org/Graphics/SVG/1.1/DTD/svg11.dtd">
<svg xmlns="http://www.w3.org/2000/svg" version="1.1" width="380px" height="380px" style="shape-rendering:geometricPrecision; text-rendering:geometricPrecision; image-rendering:optimizeQuality; fill-rule:evenodd; clip-rule:evenodd" xmlns:xlink="http://www.w3.org/1999/xlink">
<g><path style="opacity:1" fill="#fefefe" d="M -0.5,-0.5 C 126.167,-0.5 252.833,-0.5 379.5,-0.5C 379.5,126.167 379.5,252.833 379.5,379.5C 252.833,379.5 126.167,379.5 -0.5,379.5C -0.5,252.833 -0.5,126.167 -0.5,-0.5 Z"/></g>
<g><path style="opacity:1" fill="#5a5859" d="M 66.5,149.5 C 63.8333,149.5 61.1667,149.5 58.5,149.5C 58.5,164.167 58.5,178.833 58.5,193.5C 57.5039,178.676 57.1706,163.676 57.5,148.5C 60.7131,148.19 63.7131,148.523 66.5,149.5 Z"/></g>
<g><path style="opacity:1" fill="#585757" d="M 312.5,149.5 C 315.287,148.523 318.287,148.19 321.5,148.5C 321.829,163.676 321.496,178.676 320.5,193.5C 320.5,178.833 320.5,164.167 320.5,149.5C 317.833,149.5 315.167,149.5 312.5,149.5 Z"/></g>
<g><path style="opacity:1" fill="#252021" d="M 312.5,149.5 C 315.167,149.5 317.833,149.5 320.5,149.5C 320.5,164.167 320.5,178.833 320.5,193.5C 315.97,216.851 301.804,228.851 278,229.5C 257.985,228.485 244.652,218.485 238,199.5C 236.559,182.89 236.059,166.223 236.5,149.5C 239.167,149.5 241.833,149.5 244.5,149.5C 244.333,163.504 244.5,177.504 245,191.5C 248.765,209.765 259.932,219.765 278.5,221.5C 296.194,219.973 307.36,210.64 312,193.5C 312.5,178.837 312.667,164.17 312.5,149.5 Z"/></g>
<g><path style="opacity:1" fill="#252022" d="M 66.5,149.5 C 66.3334,164.504 66.5001,179.504 67,194.5C 71.6454,209.48 81.6454,218.48 97,221.5C 109.626,209.875 121.959,197.875 134,185.5C 134.5,173.505 134.667,161.505 134.5,149.5C 137.167,149.5 139.833,149.5 142.5,149.5C 142.333,163.837 142.5,178.171 143,192.5C 147.05,209.89 157.883,219.39 175.5,221C 187,209.5 198.5,198 210,186.5C 210.5,174.171 210.667,161.838 210.5,149.5C 213.5,149.5 216.5,149.5 219.5,149.5C 219.667,162.837 219.5,176.171 219,189.5C 205.833,202.667 192.667,215.833 179.5,229C 164.546,230.458 152.379,225.291 143,213.5C 139.696,208.427 136.863,203.094 134.5,197.5C 123.938,208.14 113.272,218.64 102.5,229C 78.0913,229.29 63.4247,217.457 58.5,193.5C 58.5,178.833 58.5,164.167 58.5,149.5C 61.1667,149.5 63.8333,149.5 66.5,149.5 Z"/></g>
</svg>
